<svg xmlns="http://www.w3.org/2000/svg" viewBox="0 0 400 400" width="100%" height="100%">
  <defs>
    <filter id="shadow-9" x="-10%" y="-10%" width="130%" height="130%">
      <feDropShadow dx="0" dy="6" stdDeviation="8" flood-color="#000000" flood-opacity="0.35"/>
    </filter>
  </defs>
  <g filter="url(#drop-shadow)">
    <!-- White Die-Cut -->
    <path d="M 90 40 Q 200 10 310 40 Q 370 120 360 250 Q 370 340 310 360 L 90 360 Q 30 340 40 230 Q 30 100 90 40 Z" fill="#ffffff" stroke="#ffffff" stroke-width="14" stroke-linejoin="round"/>
    
    <!-- Cat Ears -->
    <polygon points="120,130 90,60 160,100" fill="#665345"/>
    <polygon points="120,120 100,75 150,105" fill="#f0b6ba"/>
    <polygon points="280,130 310,60 240,100" fill="#665345"/>
    <polygon points="280,120 300,75 250,105" fill="#f0b6ba"/>

    <!-- Cat Head (White and Brown/Tabby) -->
    <ellipse cx="200" cy="180" rx="90" ry="85" fill="#ffffff"/>
    <path d="M 120 120 Q 200 135 280 120 Q 250 170 200 140 Q 150 170 120 120 Z" fill="#665345"/>

    <!-- Spinning Loading Rings around Cat Head -->
    <g transform="translate(100, 120) scale(0.6)">
      <circle cx="0" cy="-20" r="4" fill="#ffffff"/>
      <circle cx="14" cy="-14" r="4" fill="#cccccc"/>
      <circle cx="20" cy="0" r="4" fill="#999999"/>
      <circle cx="14" cy="14" r="4" fill="#666666"/>
      <circle cx="0" cy="20" r="4" fill="#333333"/>
      <circle cx="-14" cy="14" r="4" fill="#333333"/>
      <circle cx="-20" cy="0" r="4" fill="#333333"/>
      <circle cx="-14" cy="-14" r="4" fill="#333333"/>
    </g>
    <g transform="translate(300, 120) scale(0.6)">
      <circle cx="0" cy="-20" r="4" fill="#ffffff"/>
      <circle cx="14" cy="-14" r="4" fill="#cccccc"/>
      <circle cx="20" cy="0" r="4" fill="#999999"/>
      <circle cx="14" cy="14" r="4" fill="#666666"/>
      <circle cx="0" cy="20" r="4" fill="#333333"/>
    </g>
    <g transform="translate(200, 80) scale(0.7)">
      <circle cx="0" cy="-20" r="4" fill="#ffffff"/>
      <circle cx="14" cy="-14" r="4" fill="#cccccc"/>
      <circle cx="20" cy="0" r="4" fill="#999999"/>
      <circle cx="14" cy="14" r="4" fill="#666666"/>
      <circle cx="0" cy="20" r="4" fill="#333333"/>
    </g>

    <!-- Blank Round Greenish Yellow Staring Eyes -->
    <ellipse cx="160" cy="175" rx="22" ry="24" fill="#d9e058"/>
    <ellipse cx="160" cy="175" rx="8" ry="20" fill="#141414"/>
    <circle cx="155" cy="168" r="3" fill="#ffffff"/>

    <ellipse cx="240" cy="175" rx="22" ry="24" fill="#d9e058"/>
    <ellipse cx="240" cy="175" rx="8" ry="20" fill="#141414"/>
    <circle cx="235" cy="168" r="3" fill="#ffffff"/>

    <!-- Pink Nose & Cute Blank Cat Mouth -->
    <polygon points="194,205 206,205 200,213" fill="#f09ca5"/>
    <path d="M 188 220 Q 200 226 200 213 Q 200 226 212 220" stroke="#333333" stroke-width="3" stroke-linecap="round" fill="none"/>

    <!-- Whiskers -->
    <path d="M 140 210 L 80 200 M 140 218 L 75 220 M 140 225 L 80 240" stroke="#999999" stroke-width="2.5"/>
    <path d="M 260 210 L 320 200 M 260 218 L 325 220 M 260 225 L 320 240" stroke="#999999" stroke-width="2.5"/>

    <!-- Cat Body -->
    <path d="M 130 255 Q 200 240 270 255 L 290 330 L 110 330 Z" fill="#e8e8e8"/>

    <!-- Meme Text: BUFFERING / CARGANDO... -->
    <text x="200" y="345" text-anchor="middle" font-family="Impact, Arial Black, sans-serif" font-weight="900" font-size="34" fill="#ffffff" stroke="#000000" stroke-width="7" paint-order="stroke fill">CARGANDO...</text>
  </g>
</svg>