<svg xmlns="http://www.w3.org/2000/svg" viewBox="0 0 400 400" width="100%" height="100%">
  <defs>
    <filter id="shadow-5" x="-10%" y="-10%" width="130%" height="130%">
      <feDropShadow dx="0" dy="6" stdDeviation="8" flood-color="#000000" flood-opacity="0.35"/>
    </filter>
    <linearGradient id="shrek-green" x1="0" y1="0" x2="0" y2="1">
      <stop offset="0%" stop-color="#98b63e"/>
      <stop offset="100%" stop-color="#6e8c25"/>
    </linearGradient>
  </defs>
  <g filter="url(#drop-shadow)">
    <!-- White Die-Cut -->
    <path d="M 80 40 Q 200 10 320 40 Q 370 120 360 250 Q 370 340 310 360 L 90 360 Q 30 340 40 230 Q 30 100 80 40 Z" fill="#ffffff" stroke="#ffffff" stroke-width="14" stroke-linejoin="round"/>
    
    <!-- Shrek Trumpet Ears -->
    <!-- Left Ear Tube -->
    <path d="M 125 120 L 70 80 Q 60 70 70 60 Q 85 60 95 80 L 135 130 Z" fill="#7d9d2b"/>
    <ellipse cx="75" cy="70" rx="10" ry="14" fill="#526818" transform="rotate(-30 75 70)"/>
    <!-- Right Ear Tube -->
    <path d="M 275 120 L 330 80 Q 340 70 330 60 Q 315 60 305 80 L 265 130 Z" fill="#7d9d2b"/>
    <ellipse cx="325" cy="70" rx="10" ry="14" fill="#526818" transform="rotate(30 325 70)"/>

    <!-- Shrek Big Round Ogre Head -->
    <ellipse cx="200" cy="180" rx="95" ry="90" fill="url(#shrek-green)"/>
    
    <!-- Brow Ridge -->
    <path d="M 130 135 Q 200 120 270 145" stroke="#526818" stroke-width="8" stroke-linecap="round" fill="none"/>

    <!-- Skeptical Eyebrows: One raised super high, one lowered -->
    <path d="M 135 130 Q 160 110 180 128" stroke="#3b4c10" stroke-width="8" stroke-linecap="round" fill="none"/>
    <path d="M 215 142 Q 240 148 265 140" stroke="#3b4c10" stroke-width="8" stroke-linecap="round" fill="none"/>

    <!-- Side-Glance Eyes -->
    <ellipse cx="160" cy="150" rx="18" ry="14" fill="#ffffff"/>
    <ellipse cx="240" cy="155" rx="18" ry="14" fill="#ffffff"/>
    <!-- Pupils glancing hard to the left -->
    <circle cx="150" cy="150" r="8" fill="#5e3914"/>
    <circle cx="148" cy="148" r="2.5" fill="#ffffff"/>
    <circle cx="230" cy="155" r="8" fill="#5e3914"/>
    <circle cx="228" cy="153" r="2.5" fill="#ffffff"/>

    <!-- Wide Big Ogre Nose with Large Nostrils -->
    <ellipse cx="200" cy="190" rx="26" ry="16" fill="#7ea02c"/>
    <circle cx="188" cy="195" r="5" fill="#3b4c10"/>
    <circle cx="212" cy="195" r="5" fill="#3b4c10"/>

    <!-- Smug / Skeptical Curled Lip Smile -->
    <path d="M 150 230 Q 190 235 245 220" stroke="#3b4c10" stroke-width="7" stroke-linecap="round" fill="none"/>
    <path d="M 235 220 Q 252 215 250 205" stroke="#3b4c10" stroke-width="5" stroke-linecap="round" fill="none"/>

    <!-- Brown Leather Vest & Cream Tunic -->
    <path d="M 100 260 L 70 340 L 330 340 L 300 260 Z" fill="#d9cdb4"/>
    <path d="M 90 270 L 140 340 L 110 340 L 70 290 Z" fill="#5c3818"/>
    <path d="M 310 270 L 260 340 L 290 340 L 330 290 Z" fill="#5c3818"/>
  </g>
</svg>